HIERARCHY
ROOT Hips
{
	OFFSET 0.000000 0.000000 0.000000
	CHANNELS 6 Xposition Yposition Zposition Zrotation Yrotation Xrotation 
	JOINT LHipJoint
	{
		OFFSET 0.000000 0.000000 0.000000
		CHANNELS 3 Zrotation Yrotation Xrotation
		JOINT LeftUpLeg
		{
			OFFSET 1.363060 -1.794630 0.839290
			CHANNELS 3 Zrotation Yrotation Xrotation
			JOINT LeftLeg
			{
				OFFSET 2.448110 -6.726130 0.000000
				CHANNELS 3 Zrotation Yrotation Xrotation
				JOINT LeftFoot
				{
					OFFSET 2.562200 -7.039590 0.000000
					CHANNELS 3 Zrotation Yrotation Xrotation
					JOINT LeftToeBase
					{
						OFFSET 0.157640 -0.433110 2.322550
						CHANNELS 3 Zrotation Yrotation Xrotation
						End Site
						{
							OFFSET 0.000000 0.000000 0.000000
						}
					}
				}
			}
		}
	}
	JOINT RHipJoint
	{
		OFFSET 0.000000 0.000000 0.000000
		CHANNELS 3 Zrotation Yrotation Xrotation
		JOINT RightUpLeg
		{
			OFFSET -1.305520 -1.794630 0.839290
			CHANNELS 3 Zrotation Yrotation Xrotation
			JOINT RightLeg
			{
				OFFSET -2.542530 -6.985550 0.000000
				CHANNELS 3 Zrotation Yrotation Xrotation
				JOINT RightFoot
				{
					OFFSET -2.568260 -7.056230 0.000000
					CHANNELS 3 Zrotation Yrotation Xrotation
					JOINT RightToeBase
					{
						OFFSET -0.164730 -0.452590 2.363150
						CHANNELS 3 Zrotation Yrotation Xrotation
						End Site
						{
							OFFSET 0.000000 0.000000 0.000000
						}
					}
				}
			}
		}
	}
	JOINT LowerBack
	{
		OFFSET 0.000000 0.000000 0.000000
		CHANNELS 3 Zrotation Yrotation Xrotation
		JOINT Spine
		{
			OFFSET 0.028270 2.035590 -0.193380
			CHANNELS 3 Zrotation Yrotation Xrotation
			JOINT Spine1
			{
				OFFSET 0.056720 2.048850 -0.042750
				CHANNELS 3 Zrotation Yrotation Xrotation
				JOINT Neck
				{
					OFFSET 0.000000 0.000000 0.000000
					CHANNELS 3 Zrotation Yrotation Xrotation
					JOINT Neck1
					{
						OFFSET -0.054170 1.746240 0.172020
						CHANNELS 3 Zrotation Yrotation Xrotation
						JOINT Head
						{
							OFFSET 0.104070 1.761360 -0.123970
							CHANNELS 3 Zrotation Yrotation Xrotation
							End Site
							{
								OFFSET 0.000000 0.000000 0.000000
							}
						}
					}
				}
				JOINT LeftShoulder
				{
					OFFSET 0.000000 0.000000 0.000000
					CHANNELS 3 Zrotation Yrotation Xrotation
					JOINT LeftArm
					{
						OFFSET 3.362410 1.200890 -0.311210
						CHANNELS 3 Zrotation Yrotation Xrotation
						JOINT LeftForeArm
						{
							OFFSET 4.983000 -0.000000 -0.000000
							CHANNELS 3 Zrotation Yrotation Xrotation
							JOINT LeftHand
							{
								OFFSET 3.483560 -0.000000 -0.000000
								CHANNELS 3 Zrotation Yrotation Xrotation
								JOINT LeftFingerBase
								{
									OFFSET 0.000000 0.000000 0.000000
									CHANNELS 3 Zrotation Yrotation Xrotation
									JOINT LeftHandIndex1
									{
										OFFSET 0.715260 -0.000000 -0.000000
										CHANNELS 3 Zrotation Yrotation Xrotation
										End Site
										{
											OFFSET 0.000000 0.000000 0.000000
										}
									}
								}
								JOINT LThumb
								{
									OFFSET 0.000000 0.000000 0.000000
									CHANNELS 3 Zrotation Yrotation Xrotation
									End Site
									{
										OFFSET 0.000000 0.000000 0.000000
									}
								}
							}
						}
					}
				}
				JOINT RightShoulder
				{
					OFFSET 0.000000 0.000000 0.000000
					CHANNELS 3 Zrotation Yrotation Xrotation
					JOINT RightArm
					{
						OFFSET -3.136600 1.374050 -0.404650
						CHANNELS 3 Zrotation Yrotation Xrotation
						JOINT RightForeArm
						{
							OFFSET -5.241900 -0.000000 -0.000000
							CHANNELS 3 Zrotation Yrotation Xrotation
							JOINT RightHand
							{
								OFFSET -3.444170 -0.000000 -0.000000
								CHANNELS 3 Zrotation Yrotation Xrotation
								JOINT RightFingerBase
								{
									OFFSET 0.000000 0.000000 0.000000
									CHANNELS 3 Zrotation Yrotation Xrotation
									JOINT RightHandIndex1
									{
										OFFSET -0.622530 -0.000000 -0.000000
										CHANNELS 3 Zrotation Yrotation Xrotation
										End Site
										{
											OFFSET 0.000000 0.000000 0.000000
										}
									}
								}
								JOINT RThumb
								{
									OFFSET 0.000000 0.000000 0.000000
									CHANNELS 3 Zrotation Yrotation Xrotation
									End Site
									{
										OFFSET 0.000000 0.000000 0.000000
									}
								}
							}
						}
					}
				}
			}
		}
	}
}
MOTION
Frames: 4
Frame Time: 0.008333
3.226781 15.387981 -1.053136 174.848531 78.420940 -158.246190 -11.574909 -1.884235 -5.908623 -13.187254 9.725946 -62.542683 2.894325 7.527640 94.640978 2.563870 13.077756 -22.346196 -3.221900 0.000000 -10.448401 8.707922 1.200825 -5.758574 12.983116 -13.266043 -50.995281 1.958383 -5.489419 63.799036 -2.746363 -5.467685 -31.679605 3.095401 0.000000 -46.785900 4.554003 -0.504105 14.057260 0.181777 -0.326794 -0.378512 -5.206257 -0.343494 -1.575883 5.896604 -2.394737 -3.865096 -2.123608 -0.178255 0.558160 0.000000 0.000000 0.000000 -0.247971 11.146302 2.195808 -67.245008 24.457940 26.726361 -0.445362 -75.713192 -0.023515 9.838321 10.735349 0.941392 -0.143043 -0.009500 0.000000 0.000000 0.000000 0.000000 0.000000 0.000000 0.000000 3.471097 1.924391 -1.713019 72.465112 9.447403 5.312291 0.098347 87.712852 -0.119134 -19.007058 1.569803 -0.332446 0.268629 -0.393266 0.000000 0.000000 0.000000 0.000000 0.000000 0.000000 0.000000 
3.409361 15.435264 -1.096844 174.758134 78.176029 -158.363061 -11.410496 -1.909276 -5.723511 -13.875607 9.252726 -63.342110 2.616485 7.403966 93.060278 2.617849 13.135550 -22.610869 -3.305300 0.000000 -10.111800 8.748095 1.110903 -5.792386 12.695212 -13.544203 -49.613776 2.023550 -5.358413 62.802510 -2.792186 -5.798707 -31.521091 3.188800 -0.000000 -47.929200 4.192640 -0.367452 13.906248 0.128723 -0.195639 -0.433656 -5.119822 -0.207867 -1.659510 5.637136 -2.382612 -3.794578 -1.941454 -0.167856 0.587948 0.000000 0.000000 0.000000 -0.328254 11.378677 2.173084 -66.333045 25.923591 27.450011 -0.439608 -76.370838 -0.022217 9.673086 10.541825 0.909605 -0.144018 -0.015560 0.000000 0.000000 0.000000 0.000000 0.000000 0.000000 0.000000 2.252761 2.095372 -1.862802 73.015778 10.223905 5.722509 0.104607 88.962890 -0.119460 -18.563634 1.749520 -0.356749 0.264327 -0.407737 0.000000 0.000000 0.000000 0.000000 0.000000 0.000000 0.000000 
3.594743 15.491543 -1.143793 174.762761 77.893368 -158.383545 -11.250058 -1.931602 -5.530720 -14.502684 8.763222 -64.030803 2.316105 7.264373 91.257043 2.669138 13.164404 -22.811564 -3.367100 -0.000000 -9.822300 8.779036 1.012794 -5.820787 12.403419 -13.764958 -48.094494 2.090648 -5.200835 61.593075 -2.834775 -6.163191 -31.211430 3.267900 0.000001 -48.966900 3.829151 -0.233577 13.752742 0.071313 -0.064542 -0.490757 -5.052911 -0.071753 -1.745166 5.430740 -2.390441 -3.729388 -1.777351 -0.158576 0.616002 0.000000 0.000000 0.000000 -0.333234 11.649242 2.131764 -65.373335 27.379043 28.175338 -0.425388 -77.312750 -0.020887 9.444989 10.221488 0.861823 -0.144631 -0.019686 0.000000 0.000000 0.000000 0.000000 0.000000 0.000000 0.000000 1.159001 2.247398 -2.007663 73.423400 10.831132 6.147475 -179.887128 89.650661 179.878958 -18.156920 1.894972 -0.374644 0.261252 -0.421348 0.000000 0.000000 0.000000 0.000000 0.000000 0.000000 0.000000 
3.783442 15.556534 -1.194013 174.833154 77.567939 -158.335304 -11.092683 -1.949673 -5.328682 -15.075251 8.256188 -64.598726 1.995241 7.105630 89.221732 2.718877 13.171961 -22.939644 -3.406400 0.000000 -9.595000 8.803086 0.907218 -5.838921 12.102771 -13.919241 -46.452902 2.154119 -5.019363 60.189359 -2.870931 -6.553953 -30.727392 3.322700 -0.000000 -49.904200 3.460637 -0.102829 13.589151 0.007911 0.066158 -0.549822 -5.009472 0.064318 -1.825817 5.288090 -2.421311 -3.665780 -1.634436 -0.150685 0.643438 0.000000 0.000000 0.000000 -0.251966 11.948375 2.072811 -64.395495 28.788240 28.895453 -0.403688 -78.458322 -0.019515 9.159157 9.806210 0.802244 -0.144669 -0.022215 0.000000 0.000000 0.000000 0.000000 0.000000 0.000000 0.000000 0.218346 2.373779 -2.145441 73.686414 11.281216 6.571495 -179.876008 88.165349 179.878328 -17.766884 2.028830 -0.389729 0.259116 -0.434246 -0.000000 0.000000 0.000000 0.000000 0.000000 0.000000 0.000000 
